<svg id="Capa_1" enable-background="new 0 0 480.012 480.012" height="512" viewBox="0 0 480.012 480.012" width="512" xmlns="http://www.w3.org/2000/svg"><path d="m472.008 96.006h-54.358l-74.268-31.829c-24.886-10.7-51.695-16.202-78.783-16.171h-26.615c-21.374-.026-41.649 9.47-55.312 25.907l-18.411 22.093h-132.253c-17.667-.01-31.998 14.303-32.008 31.97-.007 11.441 6.097 22.014 16.008 27.73v12.3c-.005 13.25 10.732 23.995 23.982 24h.018 32.022c13.231 17.661 38.273 21.253 55.934 8.022 3.042-2.279 5.743-4.98 8.022-8.022h104.022v72.31c-.018 7.295 3.3 14.198 9.008 18.741l30.992 24.794v92.155c0 17.673 14.327 32 32 32s32-14.327 32-32v-92.155l24.806-19.845h55.194c17.661.011 31.987-14.298 31.997-31.959.003-5.711-1.523-11.319-4.42-16.241 17.558-1.97 30.195-17.8 28.225-35.358-1.318-11.747-9.005-21.809-19.992-26.169l19.345-38.69c.557-1.112.846-2.339.845-3.583v-32c0-4.418-3.582-8-8-8zm-88 48h16c8.837 0 16 7.163 16 16s-7.163 16-16 16h-16zm-72-73.793c8.554 2.285 16.933 5.183 25.071 8.67l39.954 17.123h-65.025zm-117.045 13.943c10.627-12.785 26.396-20.171 43.021-20.15h26.615c10.527-.002 21.035.898 31.409 2.69v29.31h-110.92zm-178.955 43.85c0-8.837 7.163-16 16-16s16 7.163 16 16-7.163 16-16 16c-8.832-.01-15.99-7.168-16-16zm48.805 48h-24.805c-4.416-.005-7.995-3.584-8-8v-8h32.805c-1.073 5.28-1.073 10.721 0 16zm39.195 16c-13.255 0-24-10.745-24-24s10.745-24 24-24 24 10.745 24 24c-.016 13.249-10.752 23.985-24 24zm39.2-16c2.284-11.208-.343-22.857-7.217-32h6.1c3.045 0 5.825 1.731 7.168 4.463l13.793 27.537zm49.65-43.578c-.558 1.11-.849 2.335-.85 3.578v40h-11.06l-17.384-34.7c-4.04-8.163-12.368-13.321-21.476-13.3h-38.08c-12.584.001-24.432 5.929-31.978 16h-12.327c5.74-9.894 5.74-22.106 0-32h143.361zm47.15 19.578v24h-32v-38.111l12.944-25.889h70.112l-8 16h-19.056c-13.249.015-23.985 10.752-24 24zm88 248c0 8.837-7.163 16-16 16s-16-7.163-16-16v-88h32zm40-135.69c.007 2.431-1.098 4.732-3 6.247l-31.807 25.443h-42.386l-31.807-25.443c-1.902-1.514-3.007-3.815-3-6.246v-8.311h112zm0-24.31h-16v-40h-16v40h-16v-40h-16v40h-16v-40h-16v40h-16v-88c.005-4.416 3.584-7.995 8-8h104zm1.568-112h-68.624l8-16h73.025c-5.871 3.726-10.257 9.385-12.401 16zm65.732 139.3c-2.988 3.012-7.057 4.705-11.3 4.7h-41.26c.835-2.478 1.261-5.075 1.26-7.69v-24.31h40c8.829-.004 15.989 7.151 15.992 15.98.002 4.247-1.686 8.32-4.692 11.32zm28.7-59.3c-.01 8.832-7.168 15.99-16 16h-64v-32h64c8.832.011 15.989 7.168 16 16zm0-73.889-20.944 41.889h-15.356c8.85-15.282 3.635-34.845-11.647-43.695-4.878-2.825-10.416-4.31-16.053-4.305h-12.386c1.76-1.984 4.05-3.424 6.6-4.151 6.69-1.916 12.502-6.107 16.433-11.849h53.353z"/></svg>