<?xml version="1.0" encoding="iso-8859-1"?>
<!-- Generator: Adobe Illustrator 19.0.0, SVG Export Plug-In . SVG Version: 6.00 Build 0)  -->
<svg version="1.1" id="Capa_1" xmlns="http://www.w3.org/2000/svg" xmlns:xlink="http://www.w3.org/1999/xlink" x="0px" y="0px"
	 viewBox="0 0 512 512" style="enable-background:new 0 0 512 512; fill: #ffffff" xml:space="preserve">
<g>
	<g>
		<path d="M478.673,113.732c5.849-2.864,11.16-6.662,15.786-11.288c23.388-23.388,23.388-61.443,0-84.832
			c-23.388-23.389-61.444-23.389-84.832,0c-4.625,4.625-8.422,9.936-11.288,15.785c-1.167,2.382-2.388,4.746-3.649,7.093
			C353.816,14.332,305.166,0.064,255.936,0.064C114.897,0.064,0,114.413,0,255c0,66.374,25.328,129.158,71.422,177.408
			l11.723,11.546c47.484,43.922,108.417,67.982,172.791,67.982c66.049,0,128.476-25.329,176.47-71.451l8.044-8.077
			c46.094-48.25,71.422-111.033,71.422-177.408c0-49.347-13.89-96.584-40.303-137.621
			C473.913,116.126,476.278,114.906,478.673,113.732z M425.276,46.59c1.407-2.873,3.277-5.487,5.56-7.769
			c11.697-11.696,30.72-11.695,42.416,0c11.696,11.697,11.695,30.72,0,42.416c-2.282,2.282-4.896,4.152-7.768,5.559
			c-20.089,9.838-38.854,22.369-55.544,37.17l-21.833-21.833C402.894,85.456,415.365,66.829,425.276,46.59z M388.419,144.861
			c-2.579,2.579-91.702,91.702-95.435,95.435c-5.812,5.811-16.396,5.812-22.207,0c-5.847-5.848-5.847-15.361-0.05-21.159
			c1.01-1,95.422-94.531,96.435-95.535L388.419,144.861z M270.932,30.564c38.42,2.545,75.834,14.801,107.804,35.321
			c-3.761,5.177-7.737,10.182-11.901,14.975l-10.227-10.227c-5.856-5.857-15.351-5.857-21.208,0c-5.857,5.857-5.857,15.351,0,21.208
			l10.554,10.554l-8.681,8.601c-20.159-11.184-43.01-18.161-66.341-20.272V30.564z M240.94,30.565v60.157
			c-33.612,3.01-65.212,16.11-91.246,37.83l-42.619-42.619C143.34,54.243,189.846,33.915,240.94,30.565z M85.838,107.108
			l42.603,42.604c-21.672,25.772-34.745,57.022-37.774,90.291H30.506C33.876,189.31,54.179,143.153,85.838,107.108z M30.498,269.997
			h60.165c3.044,33.692,16.313,65.473,38.313,91.754L86.158,404.57C54.29,368.12,33.852,321.366,30.498,269.997z M240.941,481.432
			L240.941,481.432c-50.971-3.372-97.377-23.787-133.604-55.625l42.803-42.802c26.017,21.953,57.447,35.196,90.8,38.258V481.432z
			 M119.97,255c0-74.42,60.994-134.966,135.966-134.966c20.401,0,40.759,4.61,58.923,13.165l-65.291,64.682
			c-13.824,13.823-16.745,34.476-8.78,51.195l-12.428,12.428c-5.857,5.857-5.857,15.351,0,21.208c5.856,5.857,15.352,5.857,21.208,0
			l12.473-12.473c17.187,8.082,38.462,4.955,52.151-8.736l64.557-64.557c8.636,18.041,13.154,37.801,13.154,58.054
			c0,74.243-62.264,136.966-135.966,136.966S119.97,329.244,119.97,255z M270.932,481.432v-60.17
			c33.353-3.062,64.783-16.305,90.8-38.258l42.803,42.803C368.308,457.644,321.903,478.06,270.932,481.432z M425.714,404.57
			l-42.818-42.819c22.001-26.282,35.269-58.062,38.313-91.754h60.165C478.021,321.366,457.582,368.12,425.714,404.57z
			 M481.383,240.004H421.19c-2.084-22.98-8.926-45.168-20.195-65.304l8.633-8.633l10.604,10.604c5.856,5.857,15.352,5.857,21.208,0
			c5.857-5.857,5.857-15.351,0-21.208l-10.241-10.241c4.807-4.191,9.796-8.164,14.956-11.915
			C466.872,165.395,478.889,201.801,481.383,240.004z"/>
	</g>
</g>
<g>
</g>
<g>
</g>
<g>
</g>
<g>
</g>
<g>
</g>
<g>
</g>
<g>
</g>
<g>
</g>
<g>
</g>
<g>
</g>
<g>
</g>
<g>
</g>
<g>
</g>
<g>
</g>
<g>
</g>
</svg>
