<svg id="Layer_5" enable-background="new 0 0 64 64" style="fill: #ffffff" height="512" viewBox="0 0 64 64" width="512" xmlns="http://www.w3.org/2000/svg"><g><path d="m33 31v8h4.697l7.303 4.868v-17.736l-7.303 4.868zm2 2h2v4h-2zm8 7.132-4-2.667v-4.93l4-2.667z"/><path d="m48.121 36.121c1.17-1.17 1.17-3.072 0-4.242l-1.414 1.414c.39.39.39 1.024 0 1.414z"/><path d="m50.95 38.949c1.322-1.322 2.05-3.079 2.05-4.949s-.728-3.627-2.05-4.949l-1.414 1.414c.944.944 1.464 2.2 1.464 3.535s-.52 2.591-1.464 3.535z"/><path d="m63 21v-20h-20v4h-39c-1.654 0-3 1.346-3 3v38c0 1.654 1.346 3 3 3h2.318c-.092.218-.18.438-.261.666l-.472 1.334h10.028l-1.333 4h-8.695l.472 1.334c1.478 4.174 4.821 6.666 8.943 6.666 3.604 0 6.864-1.9 8.651-5h20.698c1.787 3.1 5.047 5 8.651 5 4.122 0 7.465-2.492 8.943-6.666l.472-1.334h-10.028l1.333-4h8.694l-.472-1.334c-.96-2.71-2.708-4.704-4.943-5.775v-22.891zm-18-18h16v16h-16zm-41 4h39v10h-40v-9c0-.552.449-1 1-1zm55.471 42h-7.192l-2.667 8h9.858c-1.354 2.53-3.692 4-6.471 4-3.05 0-5.793-1.703-7.158-4.445l-.275-.555h-23.132l-.276.555c-1.365 2.742-4.108 4.445-7.158 4.445-2.779 0-5.117-1.47-6.471-4h7.192l2.667-8h-9.859c1.354-2.53 3.692-4 6.471-4 3.05 0 5.793 1.703 7.158 4.445l.276.555h23.132l.276-.555c1.365-2.742 4.108-4.445 7.158-4.445 2.779 0 5.117 1.47 6.471 4zm-4.471-5.788c-.642-.136-1.309-.212-2-.212-3.604 0-6.864 1.9-8.651 5h-20.698c-1.787-3.1-5.047-5-8.651-5-3.146 0-5.836 1.456-7.592 4h-3.408c-.551 0-1-.448-1-1v-27h40v2h12z"/><path d="m50 13.586-2.293-2.293-1.414 1.414 3.707 3.707 9.707-9.707-1.414-1.414z"/><path d="m11 9h-6v6h6zm-2 4h-2v-2h2z"/><path d="m13 21h-6v2h-2v2h2v2h6v-2h14v-2h-14zm-2 4h-2v-2h2z"/><path d="m19 9h-6v6h6zm-2 4h-2v-2h2z"/><path d="m27 9h-6v6h6zm-2 4h-2v-2h2z"/><path d="m19 29h-6v2h-8v2h8v2h6v-2h8v-2h-8zm-2 4h-2v-2h2z"/><path d="m25 37h-6v2h-14v2h14v2h6v-2h2v-2h-2zm-2 4h-2v-2h2z"/></g></svg>